<?xml version="1.0" encoding="UTF-8"?>
<!DOCTYPE svg PUBLIC "-//W3C//DTD SVG 1.0//EN" "http://www.w3.org/TR/2001/REC-SVG-20010904/DTD/svg10.dtd">
<!-- Creator: CorelDRAW 2020 (64-Bit) -->
<svg xmlns="http://www.w3.org/2000/svg" xml:space="preserve" width="196mm" height="149mm" version="1.0" style="shape-rendering:geometricPrecision; text-rendering:geometricPrecision; image-rendering:optimizeQuality; fill-rule:evenodd; clip-rule:evenodd"
viewBox="0 0 19600 14900"
 xmlns:xlink="http://www.w3.org/1999/xlink"
 xmlns:xodm="http://www.corel.com/coreldraw/odm/2003">
 <defs>
  <style type="text/css">
   <![CDATA[
    .str0 {stroke:#2B2A29;stroke-width:20;stroke-miterlimit:22.9256}
    .fil0 {fill:#2B2A29}
   ]]>
  </style>
 </defs>
 <g id="Слой_x0020_1">
  <metadata id="CorelCorpID_0Corel-Layer"/>
  <g id="_1776032612848">
   <g id="_1605896931760">
   </g>
   <g id="_1605896933104">
   </g>
   <g id="_1605896933056">
   </g>
   <g id="_1605896932864">
   </g>
   <g id="_1605896932672">
   </g>
   <g id="_1605896930752">
   </g>
   <g id="_1605896930368">
   </g>
   <g id="_1605896929408">
   </g>
   <g id="_1605896929216">
   </g>
   <g id="_1605896929648">
   </g>
   <g id="_1605896928880">
   </g>
   <g id="_1605896928544">
   </g>
   <g id="_1605896929984">
   </g>
   <g id="_1605896926288">
   </g>
   <g id="_1605896926096">
   </g>
   <circle class="fil0 str0" cx="8634.94" cy="13707.22" r="1101.62"/>
   <circle class="fil0 str0" cx="15530.49" cy="13695.14" r="1101.62"/>
   <polygon class="fil0 str0" points="6547.42,1546.75 7039.29,3113.42 8504.39,3113.41 12832.22,3113.41 16671.41,3113.41 18847.27,3110.52 19172.64,1578.37 18506.43,1546.75 15833.77,1546.75 10328.8,1546.75 "/>
   <polygon class="fil0 str0" points="7369.1,4164 7707.74,5242.58 7860.88,5730.37 8355.26,5730.37 12638.66,5730.37 16788.8,5730.37 18289.08,5739.06 18618.72,4186.78 17861.23,4164 14723.25,4164 9529.24,4164 "/>
   <polygon class="fil0 str0" points="8191.56,6783.67 8437.02,7565.49 8682.47,8347.29 11515.47,8347.29 15722.72,8347.29 17378.92,8347.14 17566.7,8331.87 17746.66,8293.28 18058.08,6826.83 17311.11,6781.28 13949.07,6782.17 8377.47,6783.63 "/>
   <path class="fil0 str0" d="M7570.73 8347.29l611.36 1947.07 4249.12 0 4787.53 3.55 98.85 15.84 -328.5 1546.94 -4010.54 0 -1792.68 0 -3445.76 0 -132.99 0 -140.47 -12.63 -124.23 -33.35 -138.53 -65.68 -110.32 -80.05 -96.71 -100.28 -72.83 -107.67 -59.34 -133.61 -61.17 -194.28 -123.53 -393.5 -447.02 -1423.75 -878.03 -2796.58 -1185.58 -3776.07 -364.12 -1159.76 -3036.07 -0.43 -125.66 -14.26 -106.79 -28.98 -117.24 -52.18 -108.96 -72.12 -90.19 -83.36 -65.76 -81.25 -69.33 -119.56 -46.27 -126.69 -24.49 -142.03 4.69 -168.47 19.39 -96.68 41.67 -117.26 89.87 -151.77 115.79 -123.08 130.92 -90.89 180.36 -72.07 153.03 -23.98 91.66 -1.27 3614.3 3.64 105.63 17.57 119.85 38.97 140.78 76.44 84.52 66.75 74.7 77.85 70.42 99.05 69.25 149.08 70.85 224.67 121.81 387.79c433.41,1380.5 866.82,2761.01 1300.23,4141.51l956.53 3046.82z"/>
  </g>
 </g>
</svg>
