<svg 
 xmlns="http://www.w3.org/2000/svg"
 xmlns:xlink="http://www.w3.org/1999/xlink"
 width="15px" height="17px">
<path fill-rule="evenodd"  fill="rgb(52, 73, 94)"
 d="M14.998,16.016 L12.013,16.016 L12.013,14.057 L10.000,14.057 L10.000,11.926 L8.006,11.926 L8.006,9.502 L7.667,9.152 C5.742,10.395 3.148,10.177 1.462,8.491 C-0.479,6.550 -0.479,3.403 1.462,1.462 C3.403,-0.480 6.551,-0.480 8.492,1.462 C10.203,3.173 10.401,5.819 9.095,7.753 L10.379,9.076 L10.856,9.076 L10.856,9.567 L12.332,11.089 L12.969,11.089 L12.969,11.745 L14.015,12.823 L13.807,13.031 L14.998,13.031 L14.998,16.016 ZM6.440,3.551 C5.639,2.749 4.339,2.749 3.538,3.551 C2.737,4.352 2.737,5.651 3.538,6.453 C4.339,7.254 5.639,7.254 6.440,6.453 C7.241,5.651 7.241,4.352 6.440,3.551 Z"/>
</svg>