<svg 
 xmlns="http://www.w3.org/2000/svg"
 xmlns:xlink="http://www.w3.org/1999/xlink"
 width="12px" height="17px">
<path fill-rule="evenodd"  fill="rgb(236, 240, 241)"
 d="M6.022,16.898 C2.732,16.898 0.064,14.231 0.064,10.940 C0.064,9.192 0.831,7.634 2.031,6.545 L2.031,4.922 C2.031,2.704 3.829,0.906 6.047,0.906 C8.265,0.906 10.000,2.704 10.000,4.922 L10.022,6.552 C11.217,7.642 11.979,9.196 11.979,10.940 C11.979,14.231 9.312,16.898 6.022,16.898 ZM7.531,12.937 L6.937,9.000 L5.062,9.000 L4.375,12.937 L7.531,12.937 ZM8.000,4.968 C8.000,3.847 7.122,2.937 6.000,2.937 C4.878,2.937 3.969,3.847 3.969,4.968 C3.969,5.102 3.969,5.236 3.969,5.368 C4.611,5.131 5.297,4.983 6.022,4.983 C6.719,4.983 7.378,5.125 8.000,5.345 L8.000,4.968 Z"/>
</svg>