<svg 
 xmlns="http://www.w3.org/2000/svg"
 xmlns:xlink="http://www.w3.org/1999/xlink"
 width="17px" height="17px">
<path fill-rule="evenodd"  fill="rgb(52, 73, 94)"
 d="M17.004,15.444 L15.634,16.814 L10.494,11.725 C8.150,13.449 4.846,13.271 2.726,11.151 C0.386,8.812 0.386,5.019 2.726,2.679 C5.065,0.340 8.858,0.340 11.197,2.679 C13.286,4.768 13.496,8.009 11.855,10.346 L17.004,15.444 ZM9.815,4.072 C8.237,2.494 5.679,2.494 4.102,4.072 C2.524,5.649 2.524,8.207 4.102,9.785 C5.679,11.362 8.237,11.362 9.815,9.785 C11.392,8.207 11.392,5.649 9.815,4.072 Z"/>
</svg>